<?xml version="1.0" standalone="no"?>
<!DOCTYPE svg PUBLIC "-//W3C//DTD SVG 20010904//EN"
 "http://www.w3.org/TR/2001/REC-SVG-20010904/DTD/svg10.dtd">
<svg version="1.0" xmlns="http://www.w3.org/2000/svg"
 width="402.000000pt" height="402.000000pt" viewBox="0 0 402.000000 402.000000"
 preserveAspectRatio="xMidYMid meet">
<metadata>
Created by potrace 1.14, written by Peter Selinger 2001-2017
</metadata>
<g transform="translate(0.000000,402.000000) scale(0.100000,-0.100000)"
fill="#000000" stroke="none">
<path d="M994 3476 c-64 -20 -111 -62 -141 -124 l-28 -57 1 -570 c1 -548 2
-573 22 -653 75 -289 290 -507 578 -583 58 -15 111 -21 200 -21 l122 -1 6 -36
c3 -20 17 -62 30 -94 97 -233 294 -404 543 -471 l88 -23 -75 0 c-41 1 -92 -2
-112 -6 -53 -11 -131 -76 -158 -133 -63 -128 6 -294 140 -339 61 -20 361 -20
468 0 269 52 497 247 595 510 42 115 47 172 43 545 -3 396 -7 427 -81 572
-141 280 -401 440 -716 441 l-117 0 -16 61 c-37 130 -143 293 -249 379 -108
88 -231 147 -362 173 -97 19 -280 12 -365 -14 -36 -11 -71 -21 -78 -23 -11 -3
-14 26 -16 146 -3 167 -12 200 -69 259 -18 18 -48 41 -66 51 -45 23 -135 28
-187 11z m761 -940 c62 -31 119 -90 148 -155 30 -65 29 -171 -2 -234 -32 -66
-97 -133 -156 -161 -66 -32 -187 -31 -251 2 -155 80 -218 255 -145 405 74 154
254 217 406 143z m907 -627 c100 -51 168 -159 168 -265 0 -82 -14 -124 -64
-191 -131 -178 -410 -150 -514 51 -36 70 -38 189 -5 256 80 160 263 226 415
149z"/>
</g>
</svg>
